<svg xmlns="http://www.w3.org/2000/svg" width="39.34" height="22.557" viewBox="0 0 39.34 22.557">
  <g id="Group_6" data-name="Group 6" transform="translate(-184.33 -96.721)">
    <path id="Path_8" data-name="Path 8" d="M87.308,47.763v-.006h-2.4l-3.97,4.1h-.025v2.9a6.729,6.729,0,0,1,3.4,3.013,8.265,8.265,0,0,1,.965,3.622h.013v-9.52l1.882.006A7.051,7.051,0,0,1,93.3,59.024c.043,4.263-2.136,6.863-6.192,6.863H84.886q-.051.159-.107.314c-.054.148-.112.293-.174.436a7.348,7.348,0,0,1-2.728,3.223,7.966,7.966,0,0,1-.693.4h5.926c5.726,0,10.369-5.038,10.369-11.253,0-6.142-4.536-11.133-10.17-11.248" transform="translate(126.192 48.964)" fill="#05f7c0"/>
    <path id="Path_9" data-name="Path 9" d="M35.4,52.135H48.564L52.8,47.758H34.967a7.59,7.59,0,0,0-6.549,7.873,7.155,7.155,0,0,0,6.369,7.54h2.354l4.239-4.14H35.4c-1.731-.207-2.665-1.671-2.665-3.448s.934-3.242,2.665-3.448" transform="translate(155.912 48.963)" fill="#fff"/>
    <path id="Path_10" data-name="Path 10" d="M55.485,68.014a6.654,6.654,0,0,0-1.945-2.34c-.115-.087-.234-.172-.356-.253a7.936,7.936,0,0,0-3.236-1.2H47.594l-4.24,4.14h5.98a2.808,2.808,0,0,1,1.743.85,3.241,3.241,0,0,1,.734,1.292A4.443,4.443,0,0,1,52,71.81,3.659,3.659,0,0,1,50.978,74.5a2.762,2.762,0,0,1-1.343.7c-.1.021-.2.039-.3.051H36.17l-4.239,4.377H49.948c.075-.016.148-.033.221-.051a8.8,8.8,0,0,0,1.7-.584A8.125,8.125,0,0,0,52.9,78.43a7.352,7.352,0,0,0,2.729-3.223h0c.062-.142.119-.288.173-.436a8.7,8.7,0,0,0,.515-3.009,8.3,8.3,0,0,0-.831-3.748" transform="translate(153.923 39.643)" fill="#fff"/>
  </g>
</svg>
